<svg xmlns="http://www.w3.org/2000/svg" viewBox="0 0 70 70">
  <circle cx="35" cy="35" r="35" fill="#15A34A"></circle>
  <g fill="#FFFFFF">
    <path d="M36.29,30c1.95.51,3.42,2.13,3.76,4.12l.13.79,17.31-8.28c-.74-2.02-1.75-3.92-2.97-5.64l-10.66,5.42,5.41-10.82c-1.69-1.26-3.55-2.3-5.53-3.09l-8.16,17.32.7.18Z"></path>
    <path d="M40.19,35.09l-.13.79c-.34,2-1.82,3.61-3.76,4.12l-.7.18,8.16,17.32c1.99-.79,3.86-1.83,5.55-3.1l-5.42-10.82,10.66,5.42c1.22-1.72,2.22-3.61,2.96-5.62l-17.31-8.28Z"></path>
    <path d="M29.95,34.12c.34-2,1.81-3.61,3.76-4.12l.7-.18-8.16-17.32c-1.99.78-3.85,1.82-5.53,3.09l5.41,10.82-10.66-5.42c-1.22,1.73-2.23,3.62-2.97,5.64l17.31,8.28.13-.79Z"></path>
    <path d="M33.71,40c-1.95-.51-3.42-2.13-3.76-4.12l-.13-.79-17.31,8.28c.74,2.02,1.74,3.9,2.96,5.62l10.66-5.42-5.42,10.82c1.69,1.27,3.56,2.31,5.55,3.1l8.16-17.32-.7-.18Z"></path>
  </g>
</svg>